<?xml version="1.0" standalone="no"?>
<!DOCTYPE svg PUBLIC "-//W3C//DTD SVG 20010904//EN"
 "http://www.w3.org/TR/2001/REC-SVG-20010904/DTD/svg10.dtd">
<svg version="1.0" xmlns="http://www.w3.org/2000/svg"
 width="433.000000pt" height="442.000000pt" viewBox="0 0 433.000000 442.000000"
 preserveAspectRatio="xMidYMid meet">

<g transform="translate(0.000000,442.000000) scale(0.100000,-0.100000)"
fill="#000000" stroke="none">
<path d="M915 4409 c-49 -5 -135 -23 -190 -40 -172 -54 -282 -118 -411 -242
-178 -169 -280 -385 -305 -640 -12 -126 -7 -2565 6 -2629 4 -21 10 -36 14 -34
3 2 6 -10 7 -27 1 -49 13 -89 25 -81 8 4 9 -1 4 -16 -6 -18 -4 -22 7 -18 8 3
29 -2 48 -11 24 -11 51 -14 85 -11 l50 5 0 49 c0 42 3 50 24 57 13 5 100 9
193 8 144 -1 170 -4 176 -17 3 -9 0 -18 -6 -20 -7 -2 -12 -12 -12 -23 0 -16 7
-19 45 -19 38 0 45 3 45 20 0 16 7 20 35 20 28 0 35 -4 35 -19 0 -17 8 -20 53
-23 61 -4 68 -20 25 -56 -28 -24 -37 -56 -18 -67 6 -3 10 -14 10 -23 0 -15 11
-17 91 -14 63 2 89 0 84 -7 -9 -16 20 -13 34 2 8 10 6 19 -9 35 -31 33 -26 52
15 52 29 0 35 -4 35 -21 0 -12 4 -17 11 -13 8 4 9 -4 4 -27 -5 -26 -4 -31 4
-23 14 13 16 39 6 71 -5 15 -3 23 4 23 6 0 11 -10 12 -22 0 -22 1 -22 9 -3 13
30 12 35 -10 35 -14 0 -18 5 -13 17 4 10 2 14 -4 10 -8 -5 -9 1 -4 20 7 26 31
45 31 24 0 -6 -4 -11 -10 -11 -5 0 -10 -4 -10 -9 0 -6 9 -9 20 -8 14 1 20 8
20 24 0 13 4 23 10 23 5 0 11 -57 12 -137 l3 -138 40 1 c83 2 340 148 560 319
83 63 94 72 183 149 46 40 59 46 98 46 42 0 44 -1 32 -18 -34 -48 -427 -365
-498 -402 -23 -13 -24 -14 -5 -22 18 -7 17 -8 -3 -4 -27 5 -82 -23 -82 -41 0
-7 -3 -12 -7 -11 -11 4 -153 -66 -153 -74 0 -5 9 -8 20 -8 27 0 25 -16 -2 -23
-21 -6 -20 -8 17 -42 22 -19 39 -42 37 -50 -2 -8 2 -15 9 -15 9 0 9 -3 0 -14
-19 -22 3 -29 85 -27 41 1 78 -1 84 -4 13 -8 1 -35 -15 -35 -8 0 -11 -8 -8
-20 8 -29 82 -29 90 0 5 17 14 20 72 20 37 0 70 -3 74 -6 14 -15 -8 -34 -39
-34 -30 0 -34 -3 -34 -25 0 -21 5 -25 33 -27 21 -1 14 -4 -23 -8 l-55 -7 67
-1 c37 -1 69 -6 73 -11 3 -6 -94 -10 -242 -10 -136 -1 -249 -4 -252 -6 -2 -3
252 -6 565 -7 l569 -3 -410 -5 c-225 -3 -355 -6 -287 -8 68 -1 121 -6 118 -11
-9 -13 1325 -14 1465 0 154 14 198 26 114 30 l-60 2 60 6 c33 3 63 2 67 -3 7
-11 148 32 148 45 0 5 7 9 16 9 23 0 48 27 31 34 -6 3 -2 3 10 0 27 -6 104 33
152 77 18 16 36 29 40 29 4 0 39 33 78 72 116 121 207 278 255 444 l23 79 0
1375 0 1375 -23 80 c-122 422 -459 704 -890 745 -131 12 -2356 11 -2487 -1z
m770 -1289 c128 -21 244 -104 346 -248 34 -48 66 -91 70 -95 4 -5 40 35 81 90
90 118 149 172 232 213 91 45 160 52 489 48 276 -4 295 -5 340 -26 105 -48
189 -143 221 -252 13 -45 16 -116 16 -454 0 -460 0 -461 -84 -553 -57 -63
-119 -95 -198 -101 -96 -7 -199 55 -251 152 -21 39 -22 57 -27 368 l-5 328
-31 31 c-23 23 -44 33 -75 36 -56 6 -83 -14 -147 -110 -88 -132 -245 -362
-276 -404 -17 -23 -67 -94 -111 -158 -93 -136 -113 -155 -166 -155 -47 0 -79
29 -158 146 -30 43 -79 115 -110 159 -30 44 -111 163 -179 265 -69 102 -132
194 -141 205 -40 51 -97 68 -144 43 -65 -35 -67 -44 -67 -375 -1 -219 -4 -308
-14 -335 -22 -62 -81 -132 -138 -164 -46 -25 -63 -29 -128 -28 -58 0 -85 5
-119 23 -55 29 -114 90 -143 150 -23 46 -23 49 -23 486 l0 440 32 65 c51 105
135 177 235 204 64 18 576 22 673 6z m-1605 -2264 c0 -2 -7 -6 -15 -10 -8 -3
-15 -1 -15 4 0 6 7 10 15 10 8 0 15 -2 15 -4z m600 -36 c0 -5 -4 -10 -9 -10
-6 0 -13 5 -16 10 -3 6 1 10 9 10 9 0 16 -4 16 -10z m-585 -80 c3 -5 -1 -10
-9 -10 -9 0 -16 5 -16 10 0 6 4 10 9 10 6 0 13 -4 16 -10z m1435 -294 c0 -2
-9 -6 -20 -9 -11 -3 -18 -1 -14 4 5 9 34 13 34 5z m-65 -26 c13 -6 15 -9 5 -9
-8 0 -22 4 -30 9 -18 12 -2 12 25 0z m-40 -10 c3 -5 1 -10 -4 -10 -6 0 -11 5
-11 10 0 6 2 10 4 10 3 0 8 -4 11 -10z m85 -25 c-14 -17 -40 -20 -40 -6 0 8
18 16 44 20 5 0 3 -6 -4 -14z m-67 -32 c-7 -2 -21 -2 -30 0 -10 3 -4 5 12 5
17 0 24 -2 18 -5z m87 -63 c0 -5 -5 -10 -11 -10 -5 0 -7 5 -4 10 3 6 8 10 11
10 2 0 4 -4 4 -10z m325 -200 c3 -5 -1 -10 -9 -10 -9 0 -16 5 -16 10 0 6 4 10
9 10 6 0 13 -4 16 -10z m1752 -6 c-3 -3 -12 -4 -19 -1 -8 3 -5 6 6 6 11 1 17
-2 13 -5z m-1314 -11 c-13 -2 -33 -2 -45 0 -13 2 -3 4 22 4 25 0 35 -2 23 -4z
m-260 -20 c-24 -2 -62 -2 -85 0 -24 2 -5 4 42 4 47 0 66 -2 43 -4z m265 0
c-21 -2 -57 -2 -80 0 -24 2 -7 4 37 4 44 0 63 -2 43 -4z m165 0 c-13 -2 -33
-2 -45 0 -13 2 -3 4 22 4 25 0 35 -2 23 -4z m165 -20 c-10 -2 -26 -2 -35 0
-10 3 -2 5 17 5 19 0 27 -2 18 -5z"/>
<path d="M533 753 c-8 -3 -11 -14 -7 -27 5 -20 1 -24 -26 -30 -28 -5 -30 -7
-17 -21 9 -8 33 -15 55 -15 39 0 39 0 40 42 2 48 -12 65 -45 51z"/>
<path d="M433 733 c9 -2 23 -2 30 0 6 3 -1 5 -18 5 -16 0 -22 -2 -12 -5z"/>
<path d="M75 660 c-3 -5 1 -10 9 -10 9 0 16 5 16 10 0 6 -4 10 -9 10 -6 0 -13
-4 -16 -10z"/>
<path d="M1133 450 c0 -30 2 -43 4 -27 2 15 2 39 0 55 -2 15 -4 2 -4 -28z"/>
<path d="M1220 350 l-55 -7 50 -1 c28 -1 57 3 65 8 8 5 11 9 5 8 -5 -1 -35 -4
-65 -8z"/>
<path d="M1140 326 c0 -2 7 -7 16 -10 8 -3 12 -2 9 4 -6 10 -25 14 -25 6z"/>
<path d="M1208 323 c6 -2 18 -2 25 0 6 3 1 5 -13 5 -14 0 -19 -2 -12 -5z"/>
<path d="M1274 311 c5 -8 3 -17 -5 -22 -8 -5 -9 -9 -4 -9 6 0 16 4 23 9 10 6
9 11 -4 22 -14 11 -16 11 -10 0z"/>
<path d="M1208 293 c6 -2 18 -2 25 0 6 3 1 5 -13 5 -14 0 -19 -2 -12 -5z"/>
<path d="M1228 273 c7 -3 16 -2 19 1 4 3 -2 6 -13 5 -11 0 -14 -3 -6 -6z"/>
<path d="M728 53 c6 -2 18 -2 25 0 6 3 1 5 -13 5 -14 0 -19 -2 -12 -5z"/>
<path d="M828 53 c7 -3 16 -2 19 1 4 3 -2 6 -13 5 -11 0 -14 -3 -6 -6z"/>
<path d="M1649 9 c-10 -6 -4 -9 19 -9 17 0 32 2 32 4 0 9 -39 13 -51 5z"/>
<path d="M1788 3 c12 -2 30 -2 40 0 9 3 -1 5 -23 4 -22 0 -30 -2 -17 -4z"/>
</g>
</svg>
